%TF.GenerationSoftware,KiCad,Pcbnew,9.0.6*%
%TF.CreationDate,2026-01-12T08:11:24-05:00*%
%TF.ProjectId,clock,636c6f63-6b2e-46b6-9963-61645f706362,rev?*%
%TF.SameCoordinates,Original*%
%TF.FileFunction,Legend,Top*%
%TF.FilePolarity,Positive*%
%FSLAX46Y46*%
G04 Gerber Fmt 4.6, Leading zero omitted, Abs format (unit mm)*
G04 Created by KiCad (PCBNEW 9.0.6) date 2026-01-12 08:11:24*
%MOMM*%
%LPD*%
G01*
G04 APERTURE LIST*
%ADD10C,0.100000*%
%ADD11C,0.150000*%
%ADD12C,0.127000*%
%ADD13C,0.504000*%
%ADD14C,0.120000*%
G04 APERTURE END LIST*
D10*
X95053884Y-102372419D02*
X95053884Y-101372419D01*
X95387217Y-101372419D02*
X95958645Y-101372419D01*
X95672931Y-102372419D02*
X95672931Y-101372419D01*
X96291979Y-101848609D02*
X96625312Y-101848609D01*
X96768169Y-102372419D02*
X96291979Y-102372419D01*
X96291979Y-102372419D02*
X96291979Y-101372419D01*
X96291979Y-101372419D02*
X96768169Y-101372419D01*
X97196741Y-102372419D02*
X97196741Y-101372419D01*
X97196741Y-101372419D02*
X97530074Y-102086704D01*
X97530074Y-102086704D02*
X97863407Y-101372419D01*
X97863407Y-101372419D02*
X97863407Y-102372419D01*
X98339598Y-102277180D02*
X98387217Y-102324800D01*
X98387217Y-102324800D02*
X98339598Y-102372419D01*
X98339598Y-102372419D02*
X98291979Y-102324800D01*
X98291979Y-102324800D02*
X98339598Y-102277180D01*
X98339598Y-102277180D02*
X98339598Y-102372419D01*
X98339598Y-101753371D02*
X98387217Y-101800990D01*
X98387217Y-101800990D02*
X98339598Y-101848609D01*
X98339598Y-101848609D02*
X98291979Y-101800990D01*
X98291979Y-101800990D02*
X98339598Y-101753371D01*
X98339598Y-101753371D02*
X98339598Y-101848609D01*
X100149121Y-102277180D02*
X100101502Y-102324800D01*
X100101502Y-102324800D02*
X99958645Y-102372419D01*
X99958645Y-102372419D02*
X99863407Y-102372419D01*
X99863407Y-102372419D02*
X99720550Y-102324800D01*
X99720550Y-102324800D02*
X99625312Y-102229561D01*
X99625312Y-102229561D02*
X99577693Y-102134323D01*
X99577693Y-102134323D02*
X99530074Y-101943847D01*
X99530074Y-101943847D02*
X99530074Y-101800990D01*
X99530074Y-101800990D02*
X99577693Y-101610514D01*
X99577693Y-101610514D02*
X99625312Y-101515276D01*
X99625312Y-101515276D02*
X99720550Y-101420038D01*
X99720550Y-101420038D02*
X99863407Y-101372419D01*
X99863407Y-101372419D02*
X99958645Y-101372419D01*
X99958645Y-101372419D02*
X100101502Y-101420038D01*
X100101502Y-101420038D02*
X100149121Y-101467657D01*
X101053883Y-102372419D02*
X100577693Y-102372419D01*
X100577693Y-102372419D02*
X100577693Y-101372419D01*
X101577693Y-101372419D02*
X101768169Y-101372419D01*
X101768169Y-101372419D02*
X101863407Y-101420038D01*
X101863407Y-101420038D02*
X101958645Y-101515276D01*
X101958645Y-101515276D02*
X102006264Y-101705752D01*
X102006264Y-101705752D02*
X102006264Y-102039085D01*
X102006264Y-102039085D02*
X101958645Y-102229561D01*
X101958645Y-102229561D02*
X101863407Y-102324800D01*
X101863407Y-102324800D02*
X101768169Y-102372419D01*
X101768169Y-102372419D02*
X101577693Y-102372419D01*
X101577693Y-102372419D02*
X101482455Y-102324800D01*
X101482455Y-102324800D02*
X101387217Y-102229561D01*
X101387217Y-102229561D02*
X101339598Y-102039085D01*
X101339598Y-102039085D02*
X101339598Y-101705752D01*
X101339598Y-101705752D02*
X101387217Y-101515276D01*
X101387217Y-101515276D02*
X101482455Y-101420038D01*
X101482455Y-101420038D02*
X101577693Y-101372419D01*
X103006264Y-102277180D02*
X102958645Y-102324800D01*
X102958645Y-102324800D02*
X102815788Y-102372419D01*
X102815788Y-102372419D02*
X102720550Y-102372419D01*
X102720550Y-102372419D02*
X102577693Y-102324800D01*
X102577693Y-102324800D02*
X102482455Y-102229561D01*
X102482455Y-102229561D02*
X102434836Y-102134323D01*
X102434836Y-102134323D02*
X102387217Y-101943847D01*
X102387217Y-101943847D02*
X102387217Y-101800990D01*
X102387217Y-101800990D02*
X102434836Y-101610514D01*
X102434836Y-101610514D02*
X102482455Y-101515276D01*
X102482455Y-101515276D02*
X102577693Y-101420038D01*
X102577693Y-101420038D02*
X102720550Y-101372419D01*
X102720550Y-101372419D02*
X102815788Y-101372419D01*
X102815788Y-101372419D02*
X102958645Y-101420038D01*
X102958645Y-101420038D02*
X103006264Y-101467657D01*
X103434836Y-102372419D02*
X103434836Y-101372419D01*
X104006264Y-102372419D02*
X103577693Y-101800990D01*
X104006264Y-101372419D02*
X103434836Y-101943847D01*
X82303884Y-103372419D02*
X82303884Y-102372419D01*
X82303884Y-102848609D02*
X82875312Y-102848609D01*
X82875312Y-103372419D02*
X82875312Y-102372419D01*
X83256265Y-102372419D02*
X83494360Y-103372419D01*
X83494360Y-103372419D02*
X83684836Y-102658133D01*
X83684836Y-102658133D02*
X83875312Y-103372419D01*
X83875312Y-103372419D02*
X84113408Y-102372419D01*
X84494360Y-102991466D02*
X85256265Y-102991466D01*
X85589598Y-102372419D02*
X85922931Y-103372419D01*
X85922931Y-103372419D02*
X86256264Y-102372419D01*
X87113407Y-103372419D02*
X86541979Y-103372419D01*
X86827693Y-103372419D02*
X86827693Y-102372419D01*
X86827693Y-102372419D02*
X86732455Y-102515276D01*
X86732455Y-102515276D02*
X86637217Y-102610514D01*
X86637217Y-102610514D02*
X86541979Y-102658133D01*
X87589598Y-103324800D02*
X87589598Y-103372419D01*
X87589598Y-103372419D02*
X87541979Y-103467657D01*
X87541979Y-103467657D02*
X87494360Y-103515276D01*
X87922931Y-102372419D02*
X88541978Y-102372419D01*
X88541978Y-102372419D02*
X88208645Y-102753371D01*
X88208645Y-102753371D02*
X88351502Y-102753371D01*
X88351502Y-102753371D02*
X88446740Y-102800990D01*
X88446740Y-102800990D02*
X88494359Y-102848609D01*
X88494359Y-102848609D02*
X88541978Y-102943847D01*
X88541978Y-102943847D02*
X88541978Y-103181942D01*
X88541978Y-103181942D02*
X88494359Y-103277180D01*
X88494359Y-103277180D02*
X88446740Y-103324800D01*
X88446740Y-103324800D02*
X88351502Y-103372419D01*
X88351502Y-103372419D02*
X88065788Y-103372419D01*
X88065788Y-103372419D02*
X87970550Y-103324800D01*
X87970550Y-103324800D02*
X87922931Y-103277180D01*
X82589598Y-102003371D02*
X82541979Y-101955752D01*
X82541979Y-101955752D02*
X82446741Y-101812895D01*
X82446741Y-101812895D02*
X82399122Y-101717657D01*
X82399122Y-101717657D02*
X82351503Y-101574800D01*
X82351503Y-101574800D02*
X82303884Y-101336704D01*
X82303884Y-101336704D02*
X82303884Y-101146228D01*
X82303884Y-101146228D02*
X82351503Y-100908133D01*
X82351503Y-100908133D02*
X82399122Y-100765276D01*
X82399122Y-100765276D02*
X82446741Y-100670038D01*
X82446741Y-100670038D02*
X82541979Y-100527180D01*
X82541979Y-100527180D02*
X82589598Y-100479561D01*
X83399122Y-101574800D02*
X83303884Y-101622419D01*
X83303884Y-101622419D02*
X83113408Y-101622419D01*
X83113408Y-101622419D02*
X83018170Y-101574800D01*
X83018170Y-101574800D02*
X82970551Y-101527180D01*
X82970551Y-101527180D02*
X82922932Y-101431942D01*
X82922932Y-101431942D02*
X82922932Y-101146228D01*
X82922932Y-101146228D02*
X82970551Y-101050990D01*
X82970551Y-101050990D02*
X83018170Y-101003371D01*
X83018170Y-101003371D02*
X83113408Y-100955752D01*
X83113408Y-100955752D02*
X83303884Y-100955752D01*
X83303884Y-100955752D02*
X83399122Y-101003371D01*
X83732456Y-102003371D02*
X83780075Y-101955752D01*
X83780075Y-101955752D02*
X83875313Y-101812895D01*
X83875313Y-101812895D02*
X83922932Y-101717657D01*
X83922932Y-101717657D02*
X83970551Y-101574800D01*
X83970551Y-101574800D02*
X84018170Y-101336704D01*
X84018170Y-101336704D02*
X84018170Y-101146228D01*
X84018170Y-101146228D02*
X83970551Y-100908133D01*
X83970551Y-100908133D02*
X83922932Y-100765276D01*
X83922932Y-100765276D02*
X83875313Y-100670038D01*
X83875313Y-100670038D02*
X83780075Y-100527180D01*
X83780075Y-100527180D02*
X83732456Y-100479561D01*
X85256266Y-101622419D02*
X85256266Y-100622419D01*
X85732456Y-101098609D02*
X86065789Y-101098609D01*
X86208646Y-101622419D02*
X85732456Y-101622419D01*
X85732456Y-101622419D02*
X85732456Y-100622419D01*
X85732456Y-100622419D02*
X86208646Y-100622419D01*
X86541980Y-100622419D02*
X87208646Y-101622419D01*
X87208646Y-100622419D02*
X86541980Y-101622419D01*
X88303885Y-100717657D02*
X88351504Y-100670038D01*
X88351504Y-100670038D02*
X88446742Y-100622419D01*
X88446742Y-100622419D02*
X88684837Y-100622419D01*
X88684837Y-100622419D02*
X88780075Y-100670038D01*
X88780075Y-100670038D02*
X88827694Y-100717657D01*
X88827694Y-100717657D02*
X88875313Y-100812895D01*
X88875313Y-100812895D02*
X88875313Y-100908133D01*
X88875313Y-100908133D02*
X88827694Y-101050990D01*
X88827694Y-101050990D02*
X88256266Y-101622419D01*
X88256266Y-101622419D02*
X88875313Y-101622419D01*
X89494361Y-100622419D02*
X89589599Y-100622419D01*
X89589599Y-100622419D02*
X89684837Y-100670038D01*
X89684837Y-100670038D02*
X89732456Y-100717657D01*
X89732456Y-100717657D02*
X89780075Y-100812895D01*
X89780075Y-100812895D02*
X89827694Y-101003371D01*
X89827694Y-101003371D02*
X89827694Y-101241466D01*
X89827694Y-101241466D02*
X89780075Y-101431942D01*
X89780075Y-101431942D02*
X89732456Y-101527180D01*
X89732456Y-101527180D02*
X89684837Y-101574800D01*
X89684837Y-101574800D02*
X89589599Y-101622419D01*
X89589599Y-101622419D02*
X89494361Y-101622419D01*
X89494361Y-101622419D02*
X89399123Y-101574800D01*
X89399123Y-101574800D02*
X89351504Y-101527180D01*
X89351504Y-101527180D02*
X89303885Y-101431942D01*
X89303885Y-101431942D02*
X89256266Y-101241466D01*
X89256266Y-101241466D02*
X89256266Y-101003371D01*
X89256266Y-101003371D02*
X89303885Y-100812895D01*
X89303885Y-100812895D02*
X89351504Y-100717657D01*
X89351504Y-100717657D02*
X89399123Y-100670038D01*
X89399123Y-100670038D02*
X89494361Y-100622419D01*
X90208647Y-100717657D02*
X90256266Y-100670038D01*
X90256266Y-100670038D02*
X90351504Y-100622419D01*
X90351504Y-100622419D02*
X90589599Y-100622419D01*
X90589599Y-100622419D02*
X90684837Y-100670038D01*
X90684837Y-100670038D02*
X90732456Y-100717657D01*
X90732456Y-100717657D02*
X90780075Y-100812895D01*
X90780075Y-100812895D02*
X90780075Y-100908133D01*
X90780075Y-100908133D02*
X90732456Y-101050990D01*
X90732456Y-101050990D02*
X90161028Y-101622419D01*
X90161028Y-101622419D02*
X90780075Y-101622419D01*
X91637218Y-100622419D02*
X91446742Y-100622419D01*
X91446742Y-100622419D02*
X91351504Y-100670038D01*
X91351504Y-100670038D02*
X91303885Y-100717657D01*
X91303885Y-100717657D02*
X91208647Y-100860514D01*
X91208647Y-100860514D02*
X91161028Y-101050990D01*
X91161028Y-101050990D02*
X91161028Y-101431942D01*
X91161028Y-101431942D02*
X91208647Y-101527180D01*
X91208647Y-101527180D02*
X91256266Y-101574800D01*
X91256266Y-101574800D02*
X91351504Y-101622419D01*
X91351504Y-101622419D02*
X91541980Y-101622419D01*
X91541980Y-101622419D02*
X91637218Y-101574800D01*
X91637218Y-101574800D02*
X91684837Y-101527180D01*
X91684837Y-101527180D02*
X91732456Y-101431942D01*
X91732456Y-101431942D02*
X91732456Y-101193847D01*
X91732456Y-101193847D02*
X91684837Y-101098609D01*
X91684837Y-101098609D02*
X91637218Y-101050990D01*
X91637218Y-101050990D02*
X91541980Y-101003371D01*
X91541980Y-101003371D02*
X91351504Y-101003371D01*
X91351504Y-101003371D02*
X91256266Y-101050990D01*
X91256266Y-101050990D02*
X91208647Y-101098609D01*
X91208647Y-101098609D02*
X91161028Y-101193847D01*
D11*
X119523333Y-113334819D02*
X119190000Y-112858628D01*
X118951905Y-113334819D02*
X118951905Y-112334819D01*
X118951905Y-112334819D02*
X119332857Y-112334819D01*
X119332857Y-112334819D02*
X119428095Y-112382438D01*
X119428095Y-112382438D02*
X119475714Y-112430057D01*
X119475714Y-112430057D02*
X119523333Y-112525295D01*
X119523333Y-112525295D02*
X119523333Y-112668152D01*
X119523333Y-112668152D02*
X119475714Y-112763390D01*
X119475714Y-112763390D02*
X119428095Y-112811009D01*
X119428095Y-112811009D02*
X119332857Y-112858628D01*
X119332857Y-112858628D02*
X118951905Y-112858628D01*
X120380476Y-112334819D02*
X120190000Y-112334819D01*
X120190000Y-112334819D02*
X120094762Y-112382438D01*
X120094762Y-112382438D02*
X120047143Y-112430057D01*
X120047143Y-112430057D02*
X119951905Y-112572914D01*
X119951905Y-112572914D02*
X119904286Y-112763390D01*
X119904286Y-112763390D02*
X119904286Y-113144342D01*
X119904286Y-113144342D02*
X119951905Y-113239580D01*
X119951905Y-113239580D02*
X119999524Y-113287200D01*
X119999524Y-113287200D02*
X120094762Y-113334819D01*
X120094762Y-113334819D02*
X120285238Y-113334819D01*
X120285238Y-113334819D02*
X120380476Y-113287200D01*
X120380476Y-113287200D02*
X120428095Y-113239580D01*
X120428095Y-113239580D02*
X120475714Y-113144342D01*
X120475714Y-113144342D02*
X120475714Y-112906247D01*
X120475714Y-112906247D02*
X120428095Y-112811009D01*
X120428095Y-112811009D02*
X120380476Y-112763390D01*
X120380476Y-112763390D02*
X120285238Y-112715771D01*
X120285238Y-112715771D02*
X120094762Y-112715771D01*
X120094762Y-112715771D02*
X119999524Y-112763390D01*
X119999524Y-112763390D02*
X119951905Y-112811009D01*
X119951905Y-112811009D02*
X119904286Y-112906247D01*
X119393333Y-114824819D02*
X119060000Y-114348628D01*
X118821905Y-114824819D02*
X118821905Y-113824819D01*
X118821905Y-113824819D02*
X119202857Y-113824819D01*
X119202857Y-113824819D02*
X119298095Y-113872438D01*
X119298095Y-113872438D02*
X119345714Y-113920057D01*
X119345714Y-113920057D02*
X119393333Y-114015295D01*
X119393333Y-114015295D02*
X119393333Y-114158152D01*
X119393333Y-114158152D02*
X119345714Y-114253390D01*
X119345714Y-114253390D02*
X119298095Y-114301009D01*
X119298095Y-114301009D02*
X119202857Y-114348628D01*
X119202857Y-114348628D02*
X118821905Y-114348628D01*
X120298095Y-113824819D02*
X119821905Y-113824819D01*
X119821905Y-113824819D02*
X119774286Y-114301009D01*
X119774286Y-114301009D02*
X119821905Y-114253390D01*
X119821905Y-114253390D02*
X119917143Y-114205771D01*
X119917143Y-114205771D02*
X120155238Y-114205771D01*
X120155238Y-114205771D02*
X120250476Y-114253390D01*
X120250476Y-114253390D02*
X120298095Y-114301009D01*
X120298095Y-114301009D02*
X120345714Y-114396247D01*
X120345714Y-114396247D02*
X120345714Y-114634342D01*
X120345714Y-114634342D02*
X120298095Y-114729580D01*
X120298095Y-114729580D02*
X120250476Y-114777200D01*
X120250476Y-114777200D02*
X120155238Y-114824819D01*
X120155238Y-114824819D02*
X119917143Y-114824819D01*
X119917143Y-114824819D02*
X119821905Y-114777200D01*
X119821905Y-114777200D02*
X119774286Y-114729580D01*
X108023333Y-119334819D02*
X107690000Y-118858628D01*
X107451905Y-119334819D02*
X107451905Y-118334819D01*
X107451905Y-118334819D02*
X107832857Y-118334819D01*
X107832857Y-118334819D02*
X107928095Y-118382438D01*
X107928095Y-118382438D02*
X107975714Y-118430057D01*
X107975714Y-118430057D02*
X108023333Y-118525295D01*
X108023333Y-118525295D02*
X108023333Y-118668152D01*
X108023333Y-118668152D02*
X107975714Y-118763390D01*
X107975714Y-118763390D02*
X107928095Y-118811009D01*
X107928095Y-118811009D02*
X107832857Y-118858628D01*
X107832857Y-118858628D02*
X107451905Y-118858628D01*
X108880476Y-118668152D02*
X108880476Y-119334819D01*
X108642381Y-118287200D02*
X108404286Y-119001485D01*
X108404286Y-119001485D02*
X109023333Y-119001485D01*
X167734819Y-114181904D02*
X168544342Y-114181904D01*
X168544342Y-114181904D02*
X168639580Y-114134285D01*
X168639580Y-114134285D02*
X168687200Y-114086666D01*
X168687200Y-114086666D02*
X168734819Y-113991428D01*
X168734819Y-113991428D02*
X168734819Y-113800952D01*
X168734819Y-113800952D02*
X168687200Y-113705714D01*
X168687200Y-113705714D02*
X168639580Y-113658095D01*
X168639580Y-113658095D02*
X168544342Y-113610476D01*
X168544342Y-113610476D02*
X167734819Y-113610476D01*
X167830057Y-113181904D02*
X167782438Y-113134285D01*
X167782438Y-113134285D02*
X167734819Y-113039047D01*
X167734819Y-113039047D02*
X167734819Y-112800952D01*
X167734819Y-112800952D02*
X167782438Y-112705714D01*
X167782438Y-112705714D02*
X167830057Y-112658095D01*
X167830057Y-112658095D02*
X167925295Y-112610476D01*
X167925295Y-112610476D02*
X168020533Y-112610476D01*
X168020533Y-112610476D02*
X168163390Y-112658095D01*
X168163390Y-112658095D02*
X168734819Y-113229523D01*
X168734819Y-113229523D02*
X168734819Y-112610476D01*
X119393333Y-121324819D02*
X119060000Y-120848628D01*
X118821905Y-121324819D02*
X118821905Y-120324819D01*
X118821905Y-120324819D02*
X119202857Y-120324819D01*
X119202857Y-120324819D02*
X119298095Y-120372438D01*
X119298095Y-120372438D02*
X119345714Y-120420057D01*
X119345714Y-120420057D02*
X119393333Y-120515295D01*
X119393333Y-120515295D02*
X119393333Y-120658152D01*
X119393333Y-120658152D02*
X119345714Y-120753390D01*
X119345714Y-120753390D02*
X119298095Y-120801009D01*
X119298095Y-120801009D02*
X119202857Y-120848628D01*
X119202857Y-120848628D02*
X118821905Y-120848628D01*
X119726667Y-120324819D02*
X120393333Y-120324819D01*
X120393333Y-120324819D02*
X119964762Y-121324819D01*
D12*
%TO.C,U1*%
X80817500Y-118991272D02*
X80817500Y-110996000D01*
X81317500Y-110496000D02*
X82227500Y-110496000D01*
D10*
X82227500Y-108015000D02*
X82227500Y-121985000D01*
D12*
X82227500Y-108015000D02*
X82227500Y-121985000D01*
X82227500Y-119495000D02*
X81317228Y-119491272D01*
X101277500Y-106110000D02*
X84132500Y-106110000D01*
X101277500Y-123890000D02*
X84132500Y-123890000D01*
X103182500Y-121985000D02*
X103182500Y-108015000D01*
X80817500Y-110996000D02*
G75*
G02*
X81317500Y-110496000I500000J0D01*
G01*
X81317228Y-119491272D02*
G75*
G02*
X80817501Y-118991272I291J500018D01*
G01*
X82227500Y-108015000D02*
G75*
G02*
X84132500Y-106110000I1905000J0D01*
G01*
X84132500Y-123890000D02*
G75*
G02*
X82227500Y-121985000I1J1905001D01*
G01*
X101277500Y-106110000D02*
G75*
G02*
X103182500Y-108015000I0J-1905000D01*
G01*
X103182500Y-121985000D02*
G75*
G02*
X101277500Y-123890000I-1905001J1D01*
G01*
D13*
X82720500Y-123950000D02*
G75*
G02*
X82216500Y-123950000I-252000J0D01*
G01*
X82216500Y-123950000D02*
G75*
G02*
X82720500Y-123950000I252000J0D01*
G01*
X83600500Y-122807000D02*
G75*
G02*
X83096500Y-122807000I-252000J0D01*
G01*
X83096500Y-122807000D02*
G75*
G02*
X83600500Y-122807000I252000J0D01*
G01*
D14*
%TO.C,R6*%
X116420000Y-113880000D02*
X122960000Y-113880000D01*
X116420000Y-114210000D02*
X116420000Y-113880000D01*
X116420000Y-116290000D02*
X116420000Y-116620000D01*
X116420000Y-116620000D02*
X122960000Y-116620000D01*
X122960000Y-113880000D02*
X122960000Y-114210000D01*
X122960000Y-116620000D02*
X122960000Y-116290000D01*
%TO.C,R5*%
X116290000Y-110630000D02*
X116290000Y-110960000D01*
X116290000Y-113370000D02*
X116290000Y-113040000D01*
X122830000Y-110630000D02*
X116290000Y-110630000D01*
X122830000Y-110960000D02*
X122830000Y-110630000D01*
X122830000Y-113040000D02*
X122830000Y-113370000D01*
X122830000Y-113370000D02*
X116290000Y-113370000D01*
%TO.C,R4*%
X104920000Y-119880000D02*
X111460000Y-119880000D01*
X104920000Y-120210000D02*
X104920000Y-119880000D01*
X104920000Y-122290000D02*
X104920000Y-122620000D01*
X104920000Y-122620000D02*
X111460000Y-122620000D01*
X111460000Y-119880000D02*
X111460000Y-120210000D01*
X111460000Y-122620000D02*
X111460000Y-122290000D01*
%TO.C,U2*%
X126940000Y-106910000D02*
X126940000Y-119930000D01*
X157030000Y-106740000D02*
X155030000Y-106740000D01*
X167340000Y-106910000D02*
X126940000Y-106910000D01*
X167340000Y-106910000D02*
X167340000Y-119930000D01*
X167340000Y-119930000D02*
X126940000Y-119930000D01*
%TO.C,R7*%
X116290000Y-117130000D02*
X116290000Y-117460000D01*
X116290000Y-119870000D02*
X116290000Y-119540000D01*
X122830000Y-117130000D02*
X116290000Y-117130000D01*
X122830000Y-117460000D02*
X122830000Y-117130000D01*
X122830000Y-119540000D02*
X122830000Y-119870000D01*
X122830000Y-119870000D02*
X116290000Y-119870000D01*
%TD*%
M02*
