M48
; DRILL file {KiCad 9.0.6} date 2026-01-12T08:11:25-0500
; FORMAT={-:-/ absolute / metric / decimal}
; #@! TF.CreationDate,2026-01-12T08:11:25-05:00
; #@! TF.GenerationSoftware,Kicad,Pcbnew,9.0.6
; #@! TF.FileFunction,Plated,1,2,PTH
FMAT,2
METRIC
; #@! TA.AperFunction,Plated,PTH,ComponentDrill
T1C0.700
; #@! TA.AperFunction,Plated,PTH,ComponentDrill
T2C0.800
; #@! TA.AperFunction,Plated,PTH,ComponentDrill
T3C0.889
%
G90
G05
T1
X138.25Y-108.34
X138.25Y-118.5
X140.79Y-108.34
X143.33Y-108.34
X143.33Y-118.5
X145.87Y-108.34
X148.41Y-108.34
X148.41Y-118.5
X150.95Y-108.34
X150.95Y-118.5
X153.49Y-108.34
X153.49Y-118.5
X156.03Y-108.34
X156.03Y-118.5
T2
X104.25Y-111.5
X104.38Y-114.75
X104.38Y-121.25
X104.5Y-118.0
X111.87Y-111.5
X112.0Y-114.75
X112.0Y-121.25
X112.12Y-118.0
X115.75Y-112.0
X115.75Y-118.5
X115.88Y-115.25
X123.37Y-112.0
X123.37Y-118.5
X123.5Y-115.25
T3
X85.148Y-107.38
X85.148Y-122.62
X87.688Y-107.38
X87.688Y-122.62
X90.228Y-107.38
X90.228Y-122.62
X92.768Y-107.38
X92.768Y-122.62
X95.308Y-107.38
X95.308Y-122.62
X97.849Y-107.38
X97.849Y-122.62
X100.388Y-107.38
X100.388Y-122.62
M30
