%TF.GenerationSoftware,KiCad,Pcbnew,9.0.6*%
%TF.CreationDate,2026-01-12T08:11:23-05:00*%
%TF.ProjectId,clock,636c6f63-6b2e-46b6-9963-61645f706362,rev?*%
%TF.SameCoordinates,Original*%
%TF.FileFunction,Copper,L1,Top*%
%TF.FilePolarity,Positive*%
%FSLAX46Y46*%
G04 Gerber Fmt 4.6, Leading zero omitted, Abs format (unit mm)*
G04 Created by KiCad (PCBNEW 9.0.6) date 2026-01-12 08:11:23*
%MOMM*%
%LPD*%
G01*
G04 APERTURE LIST*
G04 Aperture macros list*
%AMRoundRect*
0 Rectangle with rounded corners*
0 $1 Rounding radius*
0 $2 $3 $4 $5 $6 $7 $8 $9 X,Y pos of 4 corners*
0 Add a 4 corners polygon primitive as box body*
4,1,4,$2,$3,$4,$5,$6,$7,$8,$9,$2,$3,0*
0 Add four circle primitives for the rounded corners*
1,1,$1+$1,$2,$3*
1,1,$1+$1,$4,$5*
1,1,$1+$1,$6,$7*
1,1,$1+$1,$8,$9*
0 Add four rect primitives between the rounded corners*
20,1,$1+$1,$2,$3,$4,$5,0*
20,1,$1+$1,$4,$5,$6,$7,0*
20,1,$1+$1,$6,$7,$8,$9,0*
20,1,$1+$1,$8,$9,$2,$3,0*%
G04 Aperture macros list end*
%TA.AperFunction,SMDPad,CuDef*%
%ADD10RoundRect,0.152400X-0.609600X1.063600X-0.609600X-1.063600X0.609600X-1.063600X0.609600X1.063600X0*%
%TD*%
%TA.AperFunction,ComponentPad*%
%ADD11C,1.524000*%
%TD*%
%TA.AperFunction,SMDPad,CuDef*%
%ADD12RoundRect,0.152400X0.609600X-1.063600X0.609600X1.063600X-0.609600X1.063600X-0.609600X-1.063600X0*%
%TD*%
%TA.AperFunction,ComponentPad*%
%ADD13C,1.600000*%
%TD*%
%TA.AperFunction,ComponentPad*%
%ADD14RoundRect,0.375000X-0.375000X0.375000X-0.375000X-0.375000X0.375000X-0.375000X0.375000X0.375000X0*%
%TD*%
%TA.AperFunction,ComponentPad*%
%ADD15C,1.500000*%
%TD*%
%TA.AperFunction,Conductor*%
%ADD16C,0.200000*%
%TD*%
G04 APERTURE END LIST*
D10*
%TO.P,U1,1,GPIO26/ADC0/A0*%
%TO.N,Net-(U1-GPIO26{slash}ADC0{slash}A0)*%
X85148500Y-123455000D03*
D11*
X85148500Y-122620000D03*
D10*
%TO.P,U1,2,GPIO27/ADC1/A1*%
%TO.N,Net-(U1-GPIO27{slash}ADC1{slash}A1)*%
X87688500Y-123455000D03*
D11*
X87688500Y-122620000D03*
D10*
%TO.P,U1,3,GPIO28/ADC2/A2*%
%TO.N,Net-(U1-GPIO28{slash}ADC2{slash}A2)*%
X90228500Y-123455000D03*
D11*
X90228500Y-122620000D03*
D10*
%TO.P,U1,4,GPIO29/ADC3/A3*%
%TO.N,Net-(U1-GPIO29{slash}ADC3{slash}A3)*%
X92768500Y-123455000D03*
D11*
X92768500Y-122620000D03*
D10*
%TO.P,U1,5,GPIO6/SDA*%
%TO.N,Net-(U1-GPIO6{slash}SDA)*%
X95308500Y-123455000D03*
D11*
X95308500Y-122620000D03*
D10*
%TO.P,U1,6,GPIO7/SCL*%
%TO.N,Net-(U1-GPIO7{slash}SCL)*%
X97848500Y-123455000D03*
D11*
X97848500Y-122620000D03*
D10*
%TO.P,U1,7,GPIO0/TX*%
%TO.N,Net-(U1-GPIO0{slash}TX)*%
X100388500Y-123455000D03*
D11*
X100388500Y-122620000D03*
%TO.P,U1,8,GPIO1/RX*%
%TO.N,Net-(U1-GPIO1{slash}RX)*%
X100388500Y-107380000D03*
D12*
X100388500Y-106545000D03*
D11*
%TO.P,U1,9,GPIO2/SCK*%
%TO.N,Net-(U1-GPIO2{slash}SCK)*%
X97848500Y-107380000D03*
D12*
X97848500Y-106545000D03*
D11*
%TO.P,U1,10,GPIO4/MISO*%
%TO.N,Net-(U1-GPIO4{slash}MISO)*%
X95308500Y-107380000D03*
D12*
X95308500Y-106545000D03*
D11*
%TO.P,U1,11,GPIO3/MOSI*%
%TO.N,Net-(U1-GPIO3{slash}MOSI)*%
X92768500Y-107380000D03*
D12*
X92768500Y-106545000D03*
D11*
%TO.P,U1,12,3V3*%
%TO.N,unconnected-(U1-3V3-Pad12)*%
X90228500Y-107380000D03*
D12*
X90228500Y-106545000D03*
D11*
%TO.P,U1,13,GND*%
%TO.N,unconnected-(U1-GND-Pad13)*%
X87688500Y-107380000D03*
D12*
X87688500Y-106545000D03*
D11*
%TO.P,U1,14,VBUS*%
%TO.N,unconnected-(U1-VBUS-Pad14)*%
X85148500Y-107380000D03*
D12*
X85148500Y-106545000D03*
%TD*%
D13*
%TO.P,R6,1*%
%TO.N,Net-(U1-GPIO7{slash}SCL)*%
X115880000Y-115250000D03*
%TO.P,R6,2*%
%TO.N,Net-(U2-F)*%
X123500000Y-115250000D03*
%TD*%
%TO.P,R5,1*%
%TO.N,Net-(U2-E)*%
X123370000Y-112000000D03*
%TO.P,R5,2*%
%TO.N,Net-(U1-GPIO6{slash}SDA)*%
X115750000Y-112000000D03*
%TD*%
%TO.P,R4,1*%
%TO.N,Net-(U1-GPIO29{slash}ADC3{slash}A3)*%
X104380000Y-121250000D03*
%TO.P,R4,2*%
%TO.N,Net-(U2-D)*%
X112000000Y-121250000D03*
%TD*%
D14*
%TO.P,U2,1,CA1*%
%TO.N,Net-(U1-GPIO3{slash}MOSI)*%
X156030000Y-108340000D03*
D15*
%TO.P,U2,2,CA2*%
%TO.N,Net-(U1-GPIO4{slash}MISO)*%
X153490000Y-108340000D03*
%TO.P,U2,3,D*%
%TO.N,Net-(U2-D)*%
X150950000Y-108340000D03*
%TO.P,U2,4,CAL*%
%TO.N,unconnected-(U2-CAL-Pad4)*%
X148410000Y-108340000D03*
%TO.P,U2,5,E*%
%TO.N,Net-(U2-E)*%
X145870000Y-108340000D03*
%TO.P,U2,6,CA3*%
%TO.N,Net-(U1-GPIO2{slash}SCK)*%
X143330000Y-108340000D03*
%TO.P,U2,7,DP*%
%TO.N,unconnected-(U2-DP-Pad7)*%
X140790000Y-108340000D03*
%TO.P,U2,8,CA4*%
%TO.N,Net-(U1-GPIO1{slash}RX)*%
X138250000Y-108340000D03*
%TO.P,U2,9,NC*%
%TO.N,unconnected-(U2-NC-Pad9)*%
X138250000Y-118500000D03*
%TO.P,U2,11,F*%
%TO.N,Net-(U2-F)*%
X143330000Y-118500000D03*
%TO.P,U2,13,C*%
%TO.N,Net-(U2-C)*%
X148410000Y-118500000D03*
%TO.P,U2,14,A*%
%TO.N,Net-(U2-A)*%
X150950000Y-118500000D03*
%TO.P,U2,15,G*%
%TO.N,Net-(U2-G)*%
X153490000Y-118500000D03*
%TO.P,U2,16,B*%
%TO.N,Net-(U2-B)*%
X156030000Y-118500000D03*
%TD*%
D13*
%TO.P,R7,1*%
%TO.N,Net-(U2-G)*%
X123370000Y-118500000D03*
%TO.P,R7,2*%
%TO.N,Net-(U1-GPIO0{slash}TX)*%
X115750000Y-118500000D03*
%TD*%
%TO.P,R1,1*%
%TO.N,Net-(U2-A)*%
X111870000Y-111500000D03*
%TO.P,R1,2*%
%TO.N,Net-(U1-GPIO26{slash}ADC0{slash}A0)*%
X104250000Y-111500000D03*
%TD*%
%TO.P,R3,1*%
%TO.N,Net-(U2-C)*%
X112120000Y-118000000D03*
%TO.P,R3,2*%
%TO.N,Net-(U1-GPIO28{slash}ADC2{slash}A2)*%
X104500000Y-118000000D03*
%TD*%
%TO.P,R2,1*%
%TO.N,Net-(U2-B)*%
X112000000Y-114750000D03*
%TO.P,R2,2*%
%TO.N,Net-(U1-GPIO27{slash}ADC1{slash}A1)*%
X104380000Y-114750000D03*
%TD*%
D16*
%TO.N,Net-(U2-A)*%
X149849000Y-117399000D02*
X150950000Y-118500000D01*
X111870000Y-111500000D02*
X113687050Y-111500000D01*
X119586050Y-117399000D02*
X149849000Y-117399000D01*
X113687050Y-111500000D02*
X119586050Y-117399000D01*
%TO.N,Net-(U1-GPIO26{slash}ADC0{slash}A0)*%
X96268500Y-111500000D02*
X85148500Y-122620000D01*
X104250000Y-111500000D02*
X96268500Y-111500000D01*
%TO.N,Net-(U1-GPIO27{slash}ADC1{slash}A1)*%
X96393500Y-114750000D02*
X104380000Y-114750000D01*
X87688500Y-123455000D02*
X96393500Y-114750000D01*
%TO.N,Net-(U2-B)*%
X112000000Y-114750000D02*
X110769000Y-113519000D01*
X110769000Y-113519000D02*
X110769000Y-111043950D01*
X110769000Y-111043950D02*
X111413950Y-110399000D01*
X111413950Y-110399000D02*
X147929000Y-110399000D01*
X147929000Y-110399000D02*
X156030000Y-118500000D01*
%TO.N,Net-(U1-GPIO28{slash}ADC2{slash}A2)*%
X90228500Y-122620000D02*
X94848500Y-118000000D01*
X94848500Y-118000000D02*
X104500000Y-118000000D01*
%TO.N,Net-(U2-C)*%
X112120000Y-118000000D02*
X113721000Y-119601000D01*
X113721000Y-119601000D02*
X147309000Y-119601000D01*
X147309000Y-119601000D02*
X148410000Y-118500000D01*
%TO.N,Net-(U1-GPIO29{slash}ADC3{slash}A3)*%
X104380000Y-121250000D02*
X94138500Y-121250000D01*
X94138500Y-121250000D02*
X92768500Y-122620000D01*
%TO.N,Net-(U1-GPIO2{slash}SCK)*%
X97848500Y-107380000D02*
X97848500Y-106302370D01*
X140018000Y-105028000D02*
X143330000Y-108340000D01*
X99122870Y-105028000D02*
X140018000Y-105028000D01*
X97848500Y-106302370D02*
X99122870Y-105028000D01*
%TO.N,Net-(U1-GPIO3{slash}MOSI)*%
X92768500Y-107380000D02*
X95180500Y-109792000D01*
X154578000Y-109792000D02*
X156030000Y-108340000D01*
X95180500Y-109792000D02*
X154578000Y-109792000D01*
%TO.N,Net-(U1-GPIO4{slash}MISO)*%
X97319500Y-109391000D02*
X152439000Y-109391000D01*
X95308500Y-107380000D02*
X97319500Y-109391000D01*
X152439000Y-109391000D02*
X153490000Y-108340000D01*
%TO.N,Net-(U1-GPIO1{slash}RX)*%
X138250000Y-108340000D02*
X101348500Y-108340000D01*
X101348500Y-108340000D02*
X100388500Y-107380000D01*
%TD*%
M02*
