%TF.GenerationSoftware,KiCad,Pcbnew,9.0.6*%
%TF.CreationDate,2026-01-12T08:11:24-05:00*%
%TF.ProjectId,clock,636c6f63-6b2e-46b6-9963-61645f706362,rev?*%
%TF.SameCoordinates,Original*%
%TF.FileFunction,Soldermask,Top*%
%TF.FilePolarity,Negative*%
%FSLAX46Y46*%
G04 Gerber Fmt 4.6, Leading zero omitted, Abs format (unit mm)*
G04 Created by KiCad (PCBNEW 9.0.6) date 2026-01-12 08:11:24*
%MOMM*%
%LPD*%
G01*
G04 APERTURE LIST*
G04 Aperture macros list*
%AMRoundRect*
0 Rectangle with rounded corners*
0 $1 Rounding radius*
0 $2 $3 $4 $5 $6 $7 $8 $9 X,Y pos of 4 corners*
0 Add a 4 corners polygon primitive as box body*
4,1,4,$2,$3,$4,$5,$6,$7,$8,$9,$2,$3,0*
0 Add four circle primitives for the rounded corners*
1,1,$1+$1,$2,$3*
1,1,$1+$1,$4,$5*
1,1,$1+$1,$6,$7*
1,1,$1+$1,$8,$9*
0 Add four rect primitives between the rounded corners*
20,1,$1+$1,$2,$3,$4,$5,0*
20,1,$1+$1,$4,$5,$6,$7,0*
20,1,$1+$1,$6,$7,$8,$9,0*
20,1,$1+$1,$8,$9,$2,$3,0*%
G04 Aperture macros list end*
%ADD10RoundRect,0.152400X-0.609600X1.063600X-0.609600X-1.063600X0.609600X-1.063600X0.609600X1.063600X0*%
%ADD11C,1.524000*%
%ADD12RoundRect,0.152400X0.609600X-1.063600X0.609600X1.063600X-0.609600X1.063600X-0.609600X-1.063600X0*%
%ADD13C,1.600000*%
%ADD14RoundRect,0.375000X-0.375000X0.375000X-0.375000X-0.375000X0.375000X-0.375000X0.375000X0.375000X0*%
%ADD15C,1.500000*%
G04 APERTURE END LIST*
D10*
%TO.C,U1*%
X85148500Y-123455000D03*
D11*
X85148500Y-122620000D03*
D10*
X87688500Y-123455000D03*
D11*
X87688500Y-122620000D03*
D10*
X90228500Y-123455000D03*
D11*
X90228500Y-122620000D03*
D10*
X92768500Y-123455000D03*
D11*
X92768500Y-122620000D03*
D10*
X95308500Y-123455000D03*
D11*
X95308500Y-122620000D03*
D10*
X97848500Y-123455000D03*
D11*
X97848500Y-122620000D03*
D10*
X100388500Y-123455000D03*
D11*
X100388500Y-122620000D03*
X100388500Y-107380000D03*
D12*
X100388500Y-106545000D03*
D11*
X97848500Y-107380000D03*
D12*
X97848500Y-106545000D03*
D11*
X95308500Y-107380000D03*
D12*
X95308500Y-106545000D03*
D11*
X92768500Y-107380000D03*
D12*
X92768500Y-106545000D03*
D11*
X90228500Y-107380000D03*
D12*
X90228500Y-106545000D03*
D11*
X87688500Y-107380000D03*
D12*
X87688500Y-106545000D03*
D11*
X85148500Y-107380000D03*
D12*
X85148500Y-106545000D03*
%TD*%
D13*
%TO.C,R6*%
X115880000Y-115250000D03*
X123500000Y-115250000D03*
%TD*%
%TO.C,R5*%
X123370000Y-112000000D03*
X115750000Y-112000000D03*
%TD*%
%TO.C,R4*%
X104380000Y-121250000D03*
X112000000Y-121250000D03*
%TD*%
D14*
%TO.C,U2*%
X156030000Y-108340000D03*
D15*
X153490000Y-108340000D03*
X150950000Y-108340000D03*
X148410000Y-108340000D03*
X145870000Y-108340000D03*
X143330000Y-108340000D03*
X140790000Y-108340000D03*
X138250000Y-108340000D03*
X138250000Y-118500000D03*
X143330000Y-118500000D03*
X148410000Y-118500000D03*
X150950000Y-118500000D03*
X153490000Y-118500000D03*
X156030000Y-118500000D03*
%TD*%
D13*
%TO.C,R7*%
X123370000Y-118500000D03*
X115750000Y-118500000D03*
%TD*%
%TO.C,R1*%
X111870000Y-111500000D03*
X104250000Y-111500000D03*
%TD*%
%TO.C,R3*%
X112120000Y-118000000D03*
X104500000Y-118000000D03*
%TD*%
%TO.C,R2*%
X112000000Y-114750000D03*
X104380000Y-114750000D03*
%TD*%
M02*
